<svg width="797" height="626" viewBox="0 0 797 626" fill="none" xmlns="http://www.w3.org/2000/svg">
<path d="M470.47 47.17H782.74C786.13 47.17 788.89 49.92 788.89 53.32V206.15C788.89 209.54 786.14 212.3 782.74 212.3H470.47C467.08 212.3 464.32 209.55 464.32 206.15V53.32C464.32 49.93 467.07 47.17 470.47 47.17Z" fill="url(#paint0_linear_4_7)"/>
<path d="M286.349 177.217C317.731 145.834 317.731 94.953 286.349 63.5705C254.966 32.1879 204.085 32.1879 172.703 63.5704C141.32 94.953 141.32 145.834 172.703 177.217C204.085 208.599 254.966 208.599 286.349 177.217Z" fill="url(#paint1_linear_4_7)"/>
<path d="M686.04 114.7H228.61C225.241 114.7 222.51 117.431 222.51 120.8V417.01C222.51 420.379 225.241 423.11 228.61 423.11H686.04C689.409 423.11 692.14 420.379 692.14 417.01V120.8C692.14 117.431 689.409 114.7 686.04 114.7Z" fill="#1B1464"/>
<path d="M686.04 114.7H228.61C225.241 114.7 222.51 117.431 222.51 120.8V417.01C222.51 420.379 225.241 423.11 228.61 423.11H686.04C689.409 423.11 692.14 420.379 692.14 417.01V120.8C692.14 117.431 689.409 114.7 686.04 114.7Z" fill="url(#paint2_linear_4_7)"/>
<path d="M608.49 170.55H534.43C529.32 170.55 525.17 166.41 525.17 161.29C525.17 156.18 529.31 152.03 534.43 152.03H608.49C613.6 152.03 617.75 156.17 617.75 161.29C617.75 166.4 613.61 170.55 608.49 170.55Z" fill="#F1F2F2"/>
<path d="M652.03 162.964C652.959 157.935 649.636 153.105 644.607 152.175C639.578 151.246 634.747 154.569 633.818 159.598C632.889 164.627 636.212 169.458 641.241 170.387C646.27 171.316 651.1 167.993 652.03 162.964Z" fill="#F1F2F2"/>
<path d="M728.69 307.24H499.99C498.096 307.24 496.56 308.776 496.56 310.67V517.74C496.56 519.634 498.096 521.17 499.99 521.17H728.69C730.584 521.17 732.12 519.634 732.12 517.74V310.67C732.12 308.776 730.584 307.24 728.69 307.24Z" fill="url(#paint3_linear_4_7)"/>
<path d="M682.77 381.11H750.84C755.54 381.11 759.35 384.92 759.35 389.62C759.35 394.32 755.54 398.13 750.84 398.13H682.77C678.07 398.13 674.26 394.32 674.26 389.62C674.26 384.92 678.07 381.11 682.77 381.11Z" fill="#F1F2F2"/>
<path d="M748.39 249.15C741.99 249.15 738.63 245.86 736.18 243.45C734.13 241.44 733.2 240.62 730.99 240.62C728.78 240.62 727.86 241.44 725.8 243.45C723.35 245.85 719.99 249.15 713.59 249.15C707.19 249.15 703.83 245.86 701.38 243.45C699.33 241.44 698.41 240.62 696.19 240.62C693.97 240.62 693.06 241.44 691 243.45C688.55 245.85 685.19 249.15 678.79 249.15C672.39 249.15 669.03 245.86 666.58 243.45C664.53 241.44 663.61 240.62 661.39 240.62C659.17 240.62 658.26 241.44 656.2 243.45C653.75 245.85 650.39 249.15 643.99 249.15C637.59 249.15 634.23 245.86 631.78 243.45C629.73 241.44 628.81 240.62 626.59 240.62V230.59C632.99 230.59 636.35 233.88 638.8 236.29C640.85 238.3 641.77 239.12 643.99 239.12C646.21 239.12 647.12 238.3 649.18 236.29C651.63 233.89 654.99 230.59 661.39 230.59C667.79 230.59 671.15 233.88 673.6 236.29C675.65 238.3 676.57 239.12 678.79 239.12C681.01 239.12 681.92 238.3 683.98 236.29C686.43 233.89 689.79 230.59 696.19 230.59C702.59 230.59 705.95 233.88 708.4 236.29C710.45 238.3 711.37 239.12 713.59 239.12C715.81 239.12 716.72 238.3 718.78 236.29C721.23 233.89 724.59 230.59 730.99 230.59C737.39 230.59 740.75 233.88 743.2 236.29C745.25 238.3 746.18 239.12 748.39 239.12C750.6 239.12 751.52 238.3 753.58 236.29C756.03 233.89 759.39 230.59 765.79 230.59V240.62C763.58 240.62 762.66 241.44 760.6 243.45C758.15 245.85 754.79 249.15 748.39 249.15Z" fill="#E6E7E8"/>
<path d="M748.39 269.51C741.99 269.51 738.63 266.22 736.18 263.81C734.13 261.8 733.2 260.98 730.99 260.98C728.78 260.98 727.86 261.8 725.8 263.81C723.35 266.21 719.99 269.51 713.59 269.51C707.19 269.51 703.83 266.22 701.38 263.81C699.33 261.8 698.41 260.98 696.19 260.98C693.97 260.98 693.06 261.8 691 263.81C688.55 266.21 685.19 269.51 678.79 269.51C672.39 269.51 669.03 266.22 666.58 263.81C664.53 261.8 663.61 260.98 661.39 260.98C659.17 260.98 658.26 261.8 656.2 263.81C653.75 266.21 650.39 269.51 643.99 269.51C637.59 269.51 634.23 266.22 631.78 263.81C629.73 261.8 628.81 260.98 626.59 260.98V250.95C632.99 250.95 636.35 254.24 638.8 256.65C640.85 258.66 641.77 259.48 643.99 259.48C646.21 259.48 647.12 258.66 649.18 256.65C651.63 254.25 654.99 250.95 661.39 250.95C667.79 250.95 671.15 254.24 673.6 256.65C675.65 258.66 676.57 259.48 678.79 259.48C681.01 259.48 681.92 258.66 683.98 256.65C686.43 254.25 689.79 250.95 696.19 250.95C702.59 250.95 705.95 254.24 708.4 256.65C710.45 258.66 711.37 259.48 713.59 259.48C715.81 259.48 716.72 258.66 718.78 256.65C721.23 254.25 724.59 250.95 730.99 250.95C737.39 250.95 740.75 254.24 743.2 256.65C745.25 258.66 746.18 259.48 748.39 259.48C750.6 259.48 751.52 258.66 753.58 256.65C756.03 254.25 759.39 250.95 765.79 250.95V260.98C763.58 260.98 762.66 261.8 760.6 263.81C758.15 266.21 754.79 269.51 748.39 269.51Z" fill="#E6E7E8"/>
<path d="M591.51 0H509.69L550.6 81.83L591.51 0Z" fill="#E6E7E8"/>
<path d="M757.6 351.84C757.6 341.11 766.3 332.41 777.03 332.41C787.76 332.41 796.46 341.11 796.46 351.84C796.46 362.57 787.76 371.27 777.03 371.27C766.3 371.27 757.6 362.57 757.6 351.84Z" fill="#E6E7E8"/>
<path d="M421.883 258.022C422.829 215.39 389.035 180.065 346.404 179.119C303.772 178.174 268.446 211.968 267.501 254.599C266.556 297.231 300.35 332.556 342.981 333.502C385.613 334.447 420.938 300.653 421.883 258.022Z" fill="#E6E7E8"/>
<path d="M560.6 243.2H142.22C134.311 243.2 127.9 249.611 127.9 257.52V554.5C127.9 562.409 134.311 568.82 142.22 568.82H560.6C568.509 568.82 574.92 562.409 574.92 554.5V257.52C574.92 249.611 568.509 243.2 560.6 243.2Z" fill="white"/>
<mask id="mask0_4_7" style="mask-type:luminance" maskUnits="userSpaceOnUse" x="127" y="243" width="448" height="326">
<path d="M142.22 568.82H560.6C568.509 568.82 574.92 562.409 574.92 554.5V257.52C574.92 249.611 568.509 243.2 560.6 243.2L142.22 243.2C134.311 243.2 127.9 249.611 127.9 257.52L127.9 554.5C127.9 562.409 134.311 568.82 142.22 568.82Z" fill="white"/>
</mask>
<g mask="url(#mask0_4_7)">
<path d="M-67.69 457.57C-67.46 455.84 -67.21 454.12 -66.93 452.42C-57.08 391.73 -29.25 334.9 8.82001 286.97C47.29 238.53 96.52 208.48 143.45 169.8C182.18 137.88 216.95 108.49 265.22 90.69C322.76 69.47 382.61 84.9299 438.03 105.54C496.86 127.41 529.43 160.83 593.58 135.82C760.84 70.6199 832.17 -221.24 1049.49 -144.16C1205.98 -88.6501 1277.16 98.0299 1238.04 246.8C1210.41 351.87 1153.4 446.38 1075.99 522.29C964.56 631.55 832.8 750.51 664.85 749.91C563.49 749.55 467.99 699.21 376.47 661.54C337.03 645.3 308.05 639.45 264.95 655.51C173.1 689.73 124.12 778.04 23.51 695.51C-41.73 641.99 -78.65 540.71 -67.69 457.59V457.57Z" fill="url(#paint4_linear_4_7)"/>
</g>
<path d="M186.65 309H70.31C62.28 309 55.77 302.49 55.77 294.46C55.77 286.43 62.28 279.92 70.31 279.92H186.65C194.68 279.92 201.19 286.43 201.19 294.46C201.19 302.49 194.68 309 186.65 309Z" fill="#F1F2F2"/>
<path d="M240.78 309C248.81 309 255.32 302.49 255.32 294.46C255.32 286.43 248.81 279.92 240.78 279.92C232.75 279.92 226.24 286.43 226.24 294.46C226.24 302.49 232.75 309 240.78 309Z" fill="#F1F2F2"/>
<path d="M421.96 298.33C430.073 298.33 436.65 291.753 436.65 283.64C436.65 275.527 430.073 268.95 421.96 268.95C413.847 268.95 407.27 275.527 407.27 283.64C407.27 291.753 413.847 298.33 421.96 298.33Z" fill="#45DBA5"/>
<path d="M480.72 298.33C488.833 298.33 495.41 291.753 495.41 283.64C495.41 275.527 488.833 268.95 480.72 268.95C472.607 268.95 466.03 275.527 466.03 283.64C466.03 291.753 472.607 298.33 480.72 298.33Z" fill="#45DBA5"/>
<path d="M539.47 298.33C547.583 298.33 554.16 291.753 554.16 283.64C554.16 275.527 547.583 268.95 539.47 268.95C531.357 268.95 524.78 275.527 524.78 283.64C524.78 291.753 531.357 298.33 539.47 298.33Z" fill="#45DBA5"/>
<path d="M602.7 487.04H551.88C544.09 487.04 537.77 480.72 537.77 472.93C537.77 465.14 544.09 458.82 551.88 458.82H602.7C610.49 458.82 616.81 465.14 616.81 472.93C616.81 480.72 610.49 487.04 602.7 487.04Z" fill="#F1F2F2"/>
<path d="M160.91 339.38H65.17C29.1776 339.38 0 368.558 0 404.55C0 440.542 29.1776 469.72 65.17 469.72H160.91C196.902 469.72 226.08 440.542 226.08 404.55C226.08 368.558 196.902 339.38 160.91 339.38Z" fill="url(#paint5_linear_4_7)"/>
<path d="M246.71 514.21H93.47V521.99H246.71V514.21Z" fill="#E6E7E8"/>
<path d="M434.61 625.29C402.41 625.29 376.21 599.09 376.21 566.89C376.21 534.69 402.41 508.49 434.61 508.49C466.81 508.49 493.01 534.69 493.01 566.89C493.01 599.09 466.81 625.29 434.61 625.29ZM434.61 535.31C417.2 535.31 403.03 549.48 403.03 566.89C403.03 584.3 417.2 598.47 434.61 598.47C452.02 598.47 466.19 584.3 466.19 566.89C466.19 549.48 452.02 535.31 434.61 535.31Z" fill="#E6E7E8"/>
<defs>
<linearGradient id="paint0_linear_4_7" x1="464.33" y1="129.74" x2="788.89" y2="129.74" gradientUnits="userSpaceOnUse">
<stop stop-color="#FF7BAC"/>
<stop offset="1" stop-color="#FFBFD7"/>
</linearGradient>
<linearGradient id="paint1_linear_4_7" x1="112.687" y1="22.2358" x2="359.377" y2="229.466" gradientUnits="userSpaceOnUse">
<stop offset="0.29717" stop-color="#FF7BAC"/>
<stop offset="1" stop-color="#FFD8E7"/>
</linearGradient>
<linearGradient id="paint2_linear_4_7" x1="26.23" y1="500.54" x2="659.23" y2="160.42" gradientUnits="userSpaceOnUse">
<stop stop-color="#3FA9F5"/>
<stop offset="0.49" stop-color="#A490CE"/>
<stop offset="0.84" stop-color="#E581B5"/>
<stop offset="1" stop-color="#FF7BAC"/>
</linearGradient>
<linearGradient id="paint3_linear_4_7" x1="496.56" y1="414.21" x2="732.12" y2="414.21" gradientUnits="userSpaceOnUse">
<stop stop-color="#FF7BAC"/>
<stop offset="1" stop-color="#FFCBDE"/>
</linearGradient>
<linearGradient id="paint4_linear_4_7" x1="136.164" y1="809.511" x2="1088.38" y2="-142.707" gradientUnits="userSpaceOnUse">
<stop stop-color="#3FA9F5"/>
<stop offset="0.49" stop-color="#A490CE"/>
<stop offset="0.84" stop-color="#E581B5"/>
<stop offset="1" stop-color="#FF7BAC"/>
</linearGradient>
<linearGradient id="paint5_linear_4_7" x1="0" y1="404.55" x2="226.07" y2="404.55" gradientUnits="userSpaceOnUse">
<stop stop-color="#FF5997"/>
<stop offset="1" stop-color="#FFD5E5" stop-opacity="0.34"/>
</linearGradient>
</defs>
</svg>
