<svg width="74" height="51" viewBox="0 0 74 51" fill="none" xmlns="http://www.w3.org/2000/svg">
<g clip-path="url(#clip0_2_5)">
<path d="M16.3552 0.0159728C16.3621 0.00655622 16.373 0.000976562 16.3847 0.000976562H73.9288C73.9539 0.000976562 73.9709 0.0245216 73.9626 0.0476333C73.7852 0.522809 72.1282 4.5865 65.3463 10.3513C58.4987 16.1715 46.7436 20.573 45.5375 21.0157C45.5045 21.0279 45.4831 20.9874 45.5034 20.9585L54.6939 8.00917C54.728 7.96135 54.6936 7.89525 54.6348 7.89525H43.7143C43.6897 7.89525 43.6672 7.90757 43.6538 7.92797L37.712 16.9759C37.6946 17.0023 37.6899 17.035 37.6986 17.0654L47.5399 50.8366C47.546 50.8572 47.5366 50.8778 47.5155 50.8814C47.028 50.9605 41.6724 51.7338 38.9664 47.9612C38.9344 47.9168 38.9098 47.8666 38.8931 47.8142L31.7388 25.2276C31.7207 25.1704 31.6444 25.1589 31.61 25.2081L23.5562 36.7557C23.5274 36.7972 23.5488 36.8543 23.5977 36.8669L31.585 38.9181C31.6191 38.9268 31.6219 38.9741 31.589 38.9867L5.37715 49.0784C5.34374 49.091 5.31382 49.0531 5.33431 49.0238L34.0814 8.00884C34.1149 7.96095 34.0806 7.89525 34.0219 7.89525H23.2795C23.2535 7.89525 23.2302 7.90782 23.217 7.93014C23.0582 8.1989 21.9808 9.97679 20.2422 11.7547C14.0382 18.0989 1.29154 22.2188 0.0745416 22.602C0.0413766 22.6124 0.023564 22.5721 0.043906 22.544L16.3552 0.0159728Z" fill="white"/>
<path d="M52.4966 29.4933C71.0749 24.2716 71.7621 24.0785 71.7874 24.0714C71.7881 24.0711 71.7885 24.0715 71.7885 24.0724L73.5875 31.4892L54.6481 36.5607C50.1656 37.7609 45.3968 35.4457 45.3968 35.4457C45.3968 35.4457 48.2293 30.6928 52.4966 29.4933Z" fill="white"/>
</g>
<defs>
<clipPath id="clip0_2_5">
<rect width="73.9294" height="50.9981" fill="white" transform="translate(0.0352783 0.000976562)"/>
</clipPath>
</defs>
</svg>
